<svg xmlns="http://www.w3.org/2000/svg" xmlns:xlink="http://www.w3.org/1999/xlink" width="500" zoomAndPan="magnify" viewBox="0 0 375 374.999991" height="500" preserveAspectRatio="xMidYMid meet" version="1.0"><defs><clipPath id="b4561a288d"><path d="M 4 200 L 155 200 L 155 350.96875 L 4 350.96875 Z M 4 200 " clip-rule="nonzero"/></clipPath><clipPath id="d88901658f"><path d="M 227 38 L 375 38 L 375 332 L 227 332 Z M 227 38 " clip-rule="nonzero"/></clipPath><clipPath id="e70aaed7aa"><path d="M 256.589844 346.757812 L 18.511719 179.425781 L 181.097656 -51.902344 L 419.175781 115.429688 Z M 256.589844 346.757812 " clip-rule="nonzero"/></clipPath><clipPath id="ca26baad1d"><path d="M 256.589844 346.757812 L 18.511719 179.425781 L 181.097656 -51.902344 L 419.175781 115.429688 Z M 256.589844 346.757812 " clip-rule="nonzero"/></clipPath><clipPath id="b08dbb18ea"><path d="M 256.589844 346.757812 L 18.511719 179.425781 L 181.097656 -51.902344 L 419.175781 115.429688 Z M 256.589844 346.757812 " clip-rule="nonzero"/></clipPath><clipPath id="47cb863594"><path d="M 18 0 L 329 0 L 329 250 L 18 250 Z M 18 0 " clip-rule="nonzero"/></clipPath><clipPath id="212b564673"><path d="M 256.589844 346.757812 L 18.511719 179.425781 L 181.097656 -51.902344 L 419.175781 115.429688 Z M 256.589844 346.757812 " clip-rule="nonzero"/></clipPath><clipPath id="97593f634a"><path d="M 256.589844 346.757812 L 18.511719 179.425781 L 181.097656 -51.902344 L 419.175781 115.429688 Z M 256.589844 346.757812 " clip-rule="nonzero"/></clipPath><clipPath id="435b28199d"><path d="M 256.589844 346.757812 L 18.511719 179.425781 L 181.097656 -51.902344 L 419.175781 115.429688 Z M 256.589844 346.757812 " clip-rule="nonzero"/></clipPath><clipPath id="15d59101c9"><path d="M 65 114 L 375 114 L 375 347 L 65 347 Z M 65 114 " clip-rule="nonzero"/></clipPath><clipPath id="07af81d8c5"><path d="M 256.589844 346.757812 L 18.511719 179.425781 L 181.097656 -51.902344 L 419.175781 115.429688 Z M 256.589844 346.757812 " clip-rule="nonzero"/></clipPath><clipPath id="7881af1505"><path d="M 256.589844 346.757812 L 18.511719 179.425781 L 181.097656 -51.902344 L 419.175781 115.429688 Z M 256.589844 346.757812 " clip-rule="nonzero"/></clipPath><clipPath id="c6930552f9"><path d="M 256.589844 346.757812 L 18.511719 179.425781 L 181.097656 -51.902344 L 419.175781 115.429688 Z M 256.589844 346.757812 " clip-rule="nonzero"/></clipPath><clipPath id="919f6eff59"><path d="M 52 68 L 126 68 L 126 246 L 52 246 Z M 52 68 " clip-rule="nonzero"/></clipPath><clipPath id="586b44902c"><path d="M 256.589844 346.757812 L 18.511719 179.425781 L 181.097656 -51.902344 L 419.175781 115.429688 Z M 256.589844 346.757812 " clip-rule="nonzero"/></clipPath><clipPath id="4e118793da"><path d="M 256.589844 346.757812 L 18.511719 179.425781 L 181.097656 -51.902344 L 419.175781 115.429688 Z M 256.589844 346.757812 " clip-rule="nonzero"/></clipPath><clipPath id="3365d21674"><path d="M 256.589844 346.757812 L 18.511719 179.425781 L 181.097656 -51.902344 L 419.175781 115.429688 Z M 256.589844 346.757812 " clip-rule="nonzero"/></clipPath><clipPath id="468fa51ffe"><path d="M 105 229 L 266 229 L 266 312 L 105 312 Z M 105 229 " clip-rule="nonzero"/></clipPath><clipPath id="588afc4d55"><path d="M 256.589844 346.757812 L 18.511719 179.425781 L 181.097656 -51.902344 L 419.175781 115.429688 Z M 256.589844 346.757812 " clip-rule="nonzero"/></clipPath><clipPath id="d8d4a96c61"><path d="M 256.589844 346.757812 L 18.511719 179.425781 L 181.097656 -51.902344 L 419.175781 115.429688 Z M 256.589844 346.757812 " clip-rule="nonzero"/></clipPath><clipPath id="5e14bb32e9"><path d="M 256.589844 346.757812 L 18.511719 179.425781 L 181.097656 -51.902344 L 419.175781 115.429688 Z M 256.589844 346.757812 " clip-rule="nonzero"/></clipPath><clipPath id="fce74e791d"><path d="M 55 0 L 242 0 L 242 111 L 55 111 Z M 55 0 " clip-rule="nonzero"/></clipPath><clipPath id="4ab713e653"><path d="M 256.589844 346.757812 L 18.511719 179.425781 L 181.097656 -51.902344 L 419.175781 115.429688 Z M 256.589844 346.757812 " clip-rule="nonzero"/></clipPath><clipPath id="644b224038"><path d="M 256.589844 346.757812 L 18.511719 179.425781 L 181.097656 -51.902344 L 419.175781 115.429688 Z M 256.589844 346.757812 " clip-rule="nonzero"/></clipPath><clipPath id="10890d4ef3"><path d="M 256.589844 346.757812 L 18.511719 179.425781 L 181.097656 -51.902344 L 419.175781 115.429688 Z M 256.589844 346.757812 " clip-rule="nonzero"/></clipPath><clipPath id="ca652aacd1"><path d="M 245 0 L 375 0 L 375 207 L 245 207 Z M 245 0 " clip-rule="nonzero"/></clipPath><clipPath id="f04139467a"><path d="M 256.589844 346.757812 L 18.511719 179.425781 L 181.097656 -51.902344 L 419.175781 115.429688 Z M 256.589844 346.757812 " clip-rule="nonzero"/></clipPath><clipPath id="d46f9d82e2"><path d="M 256.589844 346.757812 L 18.511719 179.425781 L 181.097656 -51.902344 L 419.175781 115.429688 Z M 256.589844 346.757812 " clip-rule="nonzero"/></clipPath><clipPath id="475d648835"><path d="M 256.589844 346.757812 L 18.511719 179.425781 L 181.097656 -51.902344 L 419.175781 115.429688 Z M 256.589844 346.757812 " clip-rule="nonzero"/></clipPath><clipPath id="049da0e28e"><path d="M 149 0 L 350 0 L 350 92 L 149 92 Z M 149 0 " clip-rule="nonzero"/></clipPath><clipPath id="1ff5d42bee"><path d="M 256.589844 346.757812 L 18.511719 179.425781 L 181.097656 -51.902344 L 419.175781 115.429688 Z M 256.589844 346.757812 " clip-rule="nonzero"/></clipPath><clipPath id="d1c39bc95b"><path d="M 256.589844 346.757812 L 18.511719 179.425781 L 181.097656 -51.902344 L 419.175781 115.429688 Z M 256.589844 346.757812 " clip-rule="nonzero"/></clipPath><clipPath id="37e8aa077b"><path d="M 256.589844 346.757812 L 18.511719 179.425781 L 181.097656 -51.902344 L 419.175781 115.429688 Z M 256.589844 346.757812 " clip-rule="nonzero"/></clipPath></defs><g clip-path="url(#b4561a288d)"><path fill="#000000" d="M 112.386719 211.84375 C 109.882812 230.066406 98.125 245.070312 80.882812 251.234375 C 68.949219 255.507812 51.695312 270.34375 35.847656 289.945312 C 20.75 308.640625 10.960938 327.046875 11.5 335.75 C 11.699219 338.921875 15.675781 342.902344 18.851562 343.101562 C 27.546875 343.660156 45.960938 333.851562 64.65625 318.75 C 84.257812 302.90625 99.09375 285.648438 103.359375 273.714844 C 109.53125 256.472656 124.53125 244.710938 142.753906 242.214844 Z M 19.480469 350.199219 C 19.109375 350.199219 18.761719 350.191406 18.410156 350.171875 C 11.640625 349.75 4.851562 342.953125 4.429688 336.191406 C 2.992188 312.964844 50.0625 254.742188 78.5 244.570312 C 95.34375 238.539062 106.050781 222.554688 105.792969 203.835938 C 105.773438 202.398438 106.628906 201.085938 107.957031 200.523438 C 109.285156 199.960938 110.820312 200.265625 111.839844 201.28125 L 153.320312 242.761719 C 154.335938 243.78125 154.636719 245.316406 154.078125 246.644531 C 153.519531 247.972656 152.203125 248.804688 150.761719 248.804688 C 150.542969 248.804688 150.3125 248.796875 150.09375 248.796875 C 131.664062 248.796875 115.988281 259.457031 110.03125 276.101562 C 100.007812 304.109375 43.363281 350.199219 19.480469 350.199219 Z M 19.480469 350.199219 " fill-opacity="1" fill-rule="evenodd"/></g><path fill="#000000" d="M 249.449219 32.769531 C 245.613281 32.769531 241.957031 33.804688 239.128906 36.632812 L 114.078125 161.695312 C 110.613281 165.148438 110.613281 170.78125 114.074219 174.242188 L 180.359375 240.523438 C 183.824219 243.988281 189.453125 243.988281 192.90625 240.523438 L 317.960938 115.46875 C 324.164062 109.277344 321.769531 99.105469 318.671875 91.667969 C 314.433594 81.496094 305.976562 69.636719 295.464844 59.132812 C 284.957031 48.625 273.101562 40.167969 262.933594 35.929688 C 258.890625 34.246094 254.03125 32.769531 249.449219 32.769531 Z M 186.632812 250.199219 C 182.550781 250.199219 178.460938 248.652344 175.347656 245.535156 L 109.066406 179.25 C 102.84375 173.023438 102.839844 162.902344 109.0625 156.683594 L 234.117188 31.625 C 239.074219 26.675781 248.554688 22.269531 265.65625 29.390625 C 276.808594 34.03125 289.179688 42.816406 300.476562 54.121094 C 311.777344 65.421875 320.566406 77.792969 325.210938 88.945312 C 332.332031 106.042969 327.925781 115.527344 322.972656 120.480469 L 197.917969 245.535156 C 194.808594 248.652344 190.722656 250.199219 186.632812 250.199219 Z M 186.632812 250.199219 " fill-opacity="1" fill-rule="evenodd"/><path fill="#000000" d="M 37.074219 314.90625 C 36.652344 314.90625 36.277344 314.957031 36.03125 315.003906 C 34.242188 315.335938 32.304688 316.433594 30.726562 318.015625 C 29.140625 319.59375 28.046875 321.535156 27.714844 323.320312 C 27.597656 323.949219 27.425781 325.492188 28.269531 326.332031 C 29.109375 327.171875 30.652344 327.003906 31.28125 326.886719 C 33.066406 326.554688 35 325.460938 36.585938 323.875 C 38.167969 322.292969 39.265625 320.359375 39.597656 318.566406 C 39.707031 317.945312 39.886719 316.40625 39.042969 315.554688 L 39.039062 315.554688 C 38.519531 315.039062 37.746094 314.90625 37.074219 314.90625 Z M 30.253906 334.066406 C 27.511719 334.066406 25.035156 333.121094 23.257812 331.34375 C 20.992188 329.078125 20.078125 325.683594 20.75 322.035156 C 21.339844 318.824219 23.101562 315.617188 25.714844 313.003906 C 28.320312 310.398438 31.53125 308.632812 34.75 308.035156 C 38.390625 307.363281 41.78125 308.277344 44.046875 310.550781 L 44.050781 310.550781 C 44.050781 310.550781 44.046875 310.550781 44.046875 310.550781 C 46.324219 312.816406 47.238281 316.207031 46.566406 319.851562 C 45.96875 323.070312 44.203125 326.28125 41.597656 328.886719 C 38.988281 331.5 35.773438 333.261719 32.558594 333.851562 C 31.777344 334 31.007812 334.066406 30.253906 334.066406 Z M 30.253906 334.066406 " fill-opacity="1" fill-rule="evenodd"/><path fill="#000000" d="M 159.347656 254.40625 C 156.507812 254.40625 153.839844 253.308594 151.847656 251.308594 L 103.292969 202.75 C 101.292969 200.757812 100.191406 198.09375 100.191406 195.253906 C 100.195312 192.417969 101.292969 189.753906 103.292969 187.753906 L 112.9375 178.113281 C 114.320312 176.726562 116.5625 176.726562 117.941406 178.113281 C 119.332031 179.496094 119.328125 181.738281 117.949219 183.125 L 108.304688 192.765625 C 107.644531 193.429688 107.277344 194.308594 107.277344 195.253906 C 107.277344 196.195312 107.644531 197.082031 108.304688 197.738281 L 156.859375 246.296875 C 157.519531 246.953125 158.402344 247.320312 159.347656 247.320312 C 160.292969 247.320312 161.171875 246.953125 161.835938 246.296875 L 171.472656 236.648438 C 172.863281 235.269531 175.105469 235.269531 176.484375 236.648438 C 177.871094 238.039062 177.871094 240.28125 176.484375 241.660156 L 166.839844 251.308594 C 164.847656 253.308594 162.179688 254.40625 159.347656 254.40625 Z M 159.347656 254.40625 " fill-opacity="1" fill-rule="evenodd"/><path fill="#000000" d="M 99.234375 291.960938 C 98.65625 291.960938 98.066406 291.8125 97.519531 291.519531 C 83.226562 283.605469 70.996094 271.375 63.082031 257.082031 C 62.140625 255.367188 62.757812 253.214844 64.46875 252.261719 C 66.183594 251.316406 68.335938 251.9375 69.28125 253.648438 C 76.5625 266.792969 87.808594 278.042969 100.953125 285.320312 C 102.664062 286.261719 103.285156 288.417969 102.339844 290.128906 C 101.691406 291.296875 100.480469 291.960938 99.234375 291.960938 Z M 99.234375 291.960938 " fill-opacity="1" fill-rule="evenodd"/><path fill="#000000" d="M 89.800781 303.578125 C 89.238281 303.578125 88.671875 303.445312 88.148438 303.171875 C 72.648438 294.984375 59.613281 281.953125 51.429688 266.453125 C 50.515625 264.726562 51.179688 262.578125 52.914062 261.671875 C 54.640625 260.753906 56.78125 261.410156 57.695312 263.144531 C 65.214844 277.390625 77.210938 289.382812 91.453125 296.90625 C 93.179688 297.8125 93.84375 299.960938 92.929688 301.6875 C 92.296875 302.890625 91.070312 303.578125 89.800781 303.578125 Z M 89.800781 303.578125 " fill-opacity="1" fill-rule="evenodd"/><path fill="#000000" d="M 224.613281 166.632812 C 224.164062 166.632812 223.695312 166.542969 223.246094 166.359375 C 200.964844 157.050781 204.53125 143.226562 207.675781 131.027344 C 209.683594 123.25 211.570312 115.90625 208.027344 108.769531 C 207.15625 107.019531 207.875 104.894531 209.628906 104.023438 C 211.378906 103.152344 213.503906 103.867188 214.375 105.625 C 219.09375 115.121094 216.671875 124.511719 214.539062 132.800781 C 211.414062 144.886719 209.355469 152.875 225.976562 159.820312 C 227.785156 160.570312 228.640625 162.644531 227.882812 164.453125 C 227.316406 165.8125 226 166.632812 224.613281 166.632812 Z M 224.613281 166.632812 " fill-opacity="1" fill-rule="evenodd"/><path fill="#000000" d="M 192.796875 81.421875 C 184.78125 81.421875 177.007812 77.726562 171.074219 63.519531 C 170.324219 61.710938 171.179688 59.636719 172.980469 58.882812 C 174.789062 58.128906 176.859375 58.980469 177.613281 60.789062 C 184.558594 77.410156 192.542969 75.347656 204.632812 72.226562 C 212.921875 70.09375 222.308594 67.671875 231.816406 72.390625 C 233.566406 73.261719 234.28125 75.386719 233.410156 77.144531 C 232.539062 78.890625 230.414062 79.609375 228.65625 78.738281 C 221.527344 75.195312 214.183594 77.082031 206.40625 79.089844 C 201.984375 80.226562 197.347656 81.421875 192.796875 81.421875 Z M 192.796875 81.421875 " fill-opacity="1" fill-rule="evenodd"/><path fill="#000000" d="M 293.980469 182.261719 C 293.527344 182.261719 293.066406 182.175781 292.617188 181.992188 C 270.335938 172.683594 273.898438 158.859375 277.042969 146.660156 C 279.050781 138.878906 280.941406 131.535156 277.398438 124.40625 C 276.527344 122.652344 277.242188 120.523438 278.992188 119.65625 C 280.75 118.785156 282.875 119.5 283.746094 121.25 C 288.460938 130.753906 286.039062 140.144531 283.90625 148.429688 C 280.789062 160.519531 278.726562 168.507812 295.347656 175.453125 C 297.15625 176.203125 298.003906 178.277344 297.253906 180.085938 C 296.683594 181.445312 295.371094 182.261719 293.980469 182.261719 Z M 293.980469 182.261719 " fill-opacity="1" fill-rule="evenodd"/><path fill="#000000" d="M 166.292969 144.546875 C 165.84375 144.546875 165.375 144.460938 164.925781 144.277344 C 142.644531 134.96875 146.210938 121.144531 149.355469 108.945312 C 151.363281 101.171875 153.25 93.824219 149.707031 86.691406 C 148.839844 84.9375 149.554688 82.8125 151.300781 81.941406 C 153.058594 81.070312 155.183594 81.785156 156.054688 83.542969 C 160.773438 93.039062 158.351562 102.429688 156.21875 110.714844 C 153.097656 122.804688 151.035156 130.792969 167.65625 137.738281 C 169.464844 138.488281 170.316406 140.5625 169.5625 142.371094 C 168.996094 143.730469 167.679688 144.550781 166.292969 144.546875 Z M 166.292969 144.546875 " fill-opacity="1" fill-rule="evenodd"/><path fill="#000000" d="M 219.984375 254.761719 C 219.527344 254.761719 219.0625 254.671875 218.621094 254.488281 C 196.335938 245.183594 199.902344 231.359375 203.046875 219.160156 C 205.046875 211.386719 206.941406 204.042969 203.402344 196.90625 C 202.53125 195.148438 203.246094 193.023438 204.996094 192.152344 C 206.75 191.28125 208.878906 191.996094 209.742188 193.753906 C 214.464844 203.253906 212.042969 212.640625 209.902344 220.929688 C 206.789062 233.019531 204.730469 241.011719 221.351562 247.949219 C 223.152344 248.703125 224.007812 250.777344 223.253906 252.585938 C 222.6875 253.941406 221.371094 254.761719 219.984375 254.761719 Z M 219.984375 254.761719 " fill-opacity="1" fill-rule="evenodd"/><path fill="#000000" d="M 258.511719 81.984375 C 256.554688 81.984375 254.96875 80.40625 254.96875 78.441406 C 254.96875 76.484375 256.554688 74.898438 258.511719 74.898438 C 260.46875 74.898438 262.054688 76.484375 262.054688 78.441406 C 262.054688 80.40625 260.46875 81.984375 258.511719 81.984375 Z M 258.511719 81.984375 " fill-opacity="1" fill-rule="evenodd"/><path fill="#000000" d="M 245.082031 108.6875 C 243.125 108.6875 241.535156 107.101562 241.535156 105.144531 C 241.535156 103.1875 243.121094 101.601562 245.078125 101.601562 C 247.035156 101.601562 248.621094 103.1875 248.621094 105.144531 C 248.621094 107.101562 247.035156 108.6875 245.082031 108.6875 Z M 245.082031 108.6875 " fill-opacity="1" fill-rule="evenodd"/><path fill="#000000" d="M 266.808594 111.179688 C 264.851562 111.179688 263.265625 109.59375 263.265625 107.640625 C 263.265625 105.683594 264.851562 104.097656 266.808594 104.097656 C 268.765625 104.097656 270.351562 105.675781 270.351562 107.632812 L 270.351562 107.640625 C 270.351562 109.59375 268.765625 111.183594 266.808594 111.179688 Z M 266.808594 111.179688 " fill-opacity="1" fill-rule="evenodd"/><path fill="#000000" d="M 172.765625 211.1875 C 170.808594 211.1875 169.222656 209.601562 169.222656 207.644531 C 169.222656 205.6875 170.808594 204.101562 172.765625 204.101562 C 174.722656 204.101562 176.308594 205.683594 176.308594 207.644531 C 176.308594 209.601562 174.71875 211.1875 172.765625 211.1875 Z M 172.765625 211.1875 " fill-opacity="1" fill-rule="evenodd"/><path fill="#000000" d="M 217.882812 183.320312 C 215.921875 183.320312 214.339844 181.738281 214.339844 179.777344 C 214.339844 177.820312 215.917969 176.234375 217.882812 176.234375 C 219.839844 176.234375 221.417969 177.820312 221.417969 179.777344 C 221.417969 181.738281 219.839844 183.320312 217.882812 183.320312 Z M 217.882812 183.320312 " fill-opacity="1" fill-rule="evenodd"/><path fill="#000000" d="M 186.367188 124.605469 C 184.410156 124.605469 182.824219 123.027344 182.824219 121.070312 C 182.824219 119.109375 184.410156 117.519531 186.367188 117.519531 C 188.324219 117.519531 189.910156 119.109375 189.910156 121.0625 L 189.910156 121.070312 C 189.910156 123.027344 188.324219 124.605469 186.367188 124.605469 Z M 186.367188 124.605469 " fill-opacity="1" fill-rule="evenodd"/><path fill="#000000" d="M 191.011719 175.03125 C 189.054688 175.03125 187.46875 173.445312 187.46875 171.488281 C 187.46875 169.53125 189.054688 167.945312 191.007812 167.945312 C 192.964844 167.945312 194.550781 169.523438 194.550781 171.480469 L 194.554688 171.488281 C 194.554688 173.445312 192.964844 175.03125 191.011719 175.03125 Z M 191.011719 175.03125 " fill-opacity="1" fill-rule="evenodd"/><path fill="#000000" d="M 234.792969 137.875 C 232.835938 137.875 231.246094 136.289062 231.246094 134.335938 C 231.25 132.378906 232.835938 130.792969 234.789062 130.792969 C 236.753906 130.792969 238.332031 132.378906 238.332031 134.335938 C 238.332031 136.289062 236.753906 137.878906 234.792969 137.875 Z M 234.792969 137.875 " fill-opacity="1" fill-rule="evenodd"/><path fill="#000000" d="M 164.808594 182.660156 C 162.855469 182.660156 161.265625 181.074219 161.265625 179.121094 C 161.265625 177.164062 162.851562 175.578125 164.808594 175.578125 C 166.765625 175.578125 168.351562 177.15625 168.351562 179.121094 C 168.351562 181.074219 166.765625 182.660156 164.808594 182.660156 Z M 164.808594 182.660156 " fill-opacity="1" fill-rule="evenodd"/><path fill="#fdda24" d="M 44.046875 310.550781 C 46.324219 312.816406 47.238281 316.203125 46.566406 319.851562 C 45.203125 327.210938 37.75 334.066406 30.253906 334.066406 C 23.609375 334.066406 19.527344 328.660156 20.75 322.035156 C 21.972656 315.386719 28.097656 309.265625 34.75 308.035156 C 38.390625 307.363281 41.78125 308.277344 44.046875 310.550781 Z M 84.160156 300.925781 C 71.726562 293.484375 61.117188 282.875 53.671875 270.441406 C 47.765625 276.09375 41.710938 282.691406 35.847656 289.945312 C 20.75 308.640625 10.960938 327.046875 11.5 335.75 C 11.699219 338.921875 15.675781 342.902344 18.851562 343.097656 C 27.546875 343.660156 45.960938 333.851562 64.65625 318.75 C 71.90625 312.890625 78.507812 306.832031 84.160156 300.925781 Z M 84.160156 300.925781 " fill-opacity="1" fill-rule="evenodd"/><path fill="#fdda24" d="M 59.015625 265.546875 C 66.128906 277.945312 76.65625 288.472656 89.050781 295.582031 C 90.855469 293.515625 92.527344 291.480469 94.054688 289.492188 C 82.394531 282.292969 72.304688 272.207031 65.109375 260.542969 C 63.121094 262.070312 61.085938 263.742188 59.015625 265.546875 Z M 59.015625 265.546875 " fill-opacity="1" fill-rule="evenodd"/><path fill="#fdda24" d="M 70.894531 256.421875 C 77.613281 267.457031 87.140625 276.984375 98.175781 283.703125 C 100.519531 280.105469 102.277344 276.738281 103.359375 273.714844 C 109.53125 256.472656 124.53125 244.710938 142.753906 242.214844 L 112.386719 211.84375 C 109.882812 230.066406 98.125 245.070312 80.882812 251.234375 C 77.859375 252.316406 74.492188 254.078125 70.894531 256.421875 Z M 70.894531 256.421875 " fill-opacity="1" fill-rule="evenodd"/><path fill="#59cbe8" d="M 108.304688 197.742188 L 156.859375 246.296875 C 157.519531 246.953125 158.402344 247.324219 159.347656 247.324219 C 160.292969 247.324219 161.171875 246.953125 161.835938 246.296875 L 168.96875 239.15625 L 115.445312 185.632812 L 108.304688 192.765625 C 107.644531 193.429688 107.277344 194.308594 107.277344 195.253906 C 107.277344 196.199219 107.644531 197.082031 108.304688 197.742188 Z M 108.304688 197.742188 " fill-opacity="1" fill-rule="evenodd"/><path fill="#9063cd" d="M 114.074219 174.242188 L 176.484375 236.652344 L 180.359375 240.523438 C 183.824219 243.988281 189.453125 243.988281 192.90625 240.523438 L 200.714844 232.71875 C 200.722656 228.179688 201.910156 223.5625 203.046875 219.160156 C 205.046875 211.386719 206.945312 204.042969 203.402344 196.90625 C 202.53125 195.148438 203.246094 193.023438 204.996094 192.152344 C 206.753906 191.28125 208.878906 192 209.742188 193.753906 C 214.464844 203.253906 212.042969 212.640625 209.902344 220.929688 C 209.59375 222.128906 209.296875 223.285156 209.027344 224.40625 L 274.757812 158.675781 C 274.988281 154.636719 276.039062 150.566406 277.042969 146.660156 C 279.050781 138.878906 280.941406 131.535156 277.398438 124.40625 C 276.527344 122.652344 277.242188 120.523438 278.992188 119.65625 C 280.75 118.785156 282.875 119.5 283.746094 121.25 C 288.464844 130.753906 286.042969 140.144531 283.910156 148.429688 C 283.78125 148.929688 283.652344 149.417969 283.53125 149.902344 L 317.960938 115.46875 C 324.164062 109.277344 321.769531 99.105469 318.671875 91.667969 C 314.433594 81.496094 305.976562 69.636719 295.464844 59.132812 C 284.957031 48.625 273.101562 40.167969 262.933594 35.929688 C 258.890625 34.246094 254.03125 32.769531 249.449219 32.769531 C 245.613281 32.769531 241.957031 33.804688 239.128906 36.632812 L 203.15625 72.609375 C 203.640625 72.484375 204.132812 72.355469 204.632812 72.226562 C 212.921875 70.09375 222.308594 67.671875 231.816406 72.390625 C 233.566406 73.261719 234.28125 75.386719 233.410156 77.144531 C 232.539062 78.890625 230.414062 79.609375 228.65625 78.738281 C 221.527344 75.195312 214.183594 77.082031 206.40625 79.089844 C 202.5 80.09375 198.425781 81.144531 194.386719 81.375 L 154.097656 121.671875 C 153.832031 128.078125 156.644531 133.136719 167.65625 137.738281 C 169.464844 138.488281 170.316406 140.5625 169.5625 142.371094 C 168.996094 143.730469 167.679688 144.550781 166.292969 144.546875 C 165.84375 144.546875 165.375 144.460938 164.925781 144.277344 C 154.011719 139.714844 149.296875 134.074219 147.699219 128.066406 L 114.078125 161.695312 C 110.613281 165.148438 110.613281 170.78125 114.074219 174.242188 Z M 223.246094 166.359375 C 200.964844 157.050781 204.53125 143.226562 207.675781 131.027344 C 209.683594 123.25 211.570312 115.90625 208.027344 108.769531 C 207.160156 107.019531 207.875 104.894531 209.628906 104.023438 C 211.378906 103.152344 213.503906 103.867188 214.375 105.625 C 219.09375 115.121094 216.671875 124.511719 214.539062 132.800781 C 211.417969 144.886719 209.359375 152.875 225.980469 159.820312 C 227.789062 160.570312 228.644531 162.644531 227.882812 164.453125 C 227.316406 165.8125 226 166.632812 224.613281 166.632812 C 224.164062 166.632812 223.699219 166.542969 223.246094 166.359375 Z M 234.792969 137.875 C 232.835938 137.875 231.246094 136.289062 231.246094 134.335938 C 231.25 132.378906 232.835938 130.792969 234.789062 130.792969 C 236.753906 130.792969 238.332031 132.378906 238.332031 134.335938 C 238.332031 136.289062 236.753906 137.878906 234.792969 137.875 Z M 191.011719 175.03125 C 189.054688 175.03125 187.46875 173.445312 187.46875 171.488281 C 187.46875 169.53125 189.054688 167.945312 191.007812 167.945312 C 192.964844 167.945312 194.550781 169.523438 194.550781 171.480469 L 194.554688 171.488281 C 194.554688 173.445312 192.964844 175.03125 191.011719 175.03125 Z M 168.351562 179.121094 Z M 164.808594 182.660156 C 162.855469 182.660156 161.265625 181.074219 161.265625 179.121094 C 161.265625 177.164062 162.851562 175.578125 164.808594 175.578125 C 166.765625 175.578125 168.351562 177.15625 168.351562 179.121094 C 168.351562 181.074219 166.765625 182.660156 164.808594 182.660156 Z M 176.308594 207.644531 Z M 172.765625 211.1875 C 170.808594 211.1875 169.222656 209.601562 169.222656 207.644531 C 169.222656 205.6875 170.808594 204.101562 172.765625 204.101562 C 174.722656 204.101562 176.308594 205.683594 176.308594 207.644531 C 176.308594 209.601562 174.722656 211.1875 172.765625 211.1875 Z M 221.417969 179.777344 Z M 217.882812 183.320312 C 215.921875 183.320312 214.339844 181.738281 214.339844 179.777344 C 214.339844 177.820312 215.917969 176.234375 217.882812 176.234375 C 219.839844 176.234375 221.417969 177.820312 221.417969 179.777344 C 221.417969 181.738281 219.839844 183.320312 217.882812 183.320312 Z M 186.367188 124.605469 C 184.410156 124.605469 182.824219 123.027344 182.824219 121.070312 C 182.824219 119.109375 184.410156 117.519531 186.367188 117.519531 C 188.324219 117.519531 189.910156 119.109375 189.910156 121.0625 L 189.910156 121.070312 C 189.910156 123.027344 188.324219 124.605469 186.367188 124.605469 Z M 266.808594 111.179688 C 264.851562 111.179688 263.265625 109.59375 263.265625 107.640625 C 263.265625 105.683594 264.851562 104.097656 266.808594 104.097656 C 268.765625 104.097656 270.351562 105.675781 270.351562 107.632812 L 270.351562 107.640625 C 270.351562 109.59375 268.761719 111.183594 266.808594 111.179688 Z M 248.621094 105.144531 Z M 245.082031 108.6875 C 243.125 108.6875 241.535156 107.101562 241.535156 105.144531 C 241.535156 103.1875 243.125 101.601562 245.078125 101.601562 C 247.035156 101.601562 248.621094 103.1875 248.621094 105.144531 C 248.621094 107.101562 247.035156 108.6875 245.082031 108.6875 Z M 262.054688 78.441406 Z M 258.511719 81.984375 C 256.558594 81.984375 254.96875 80.40625 254.96875 78.441406 C 254.96875 76.484375 256.554688 74.898438 258.511719 74.898438 C 260.46875 74.898438 262.054688 76.484375 262.054688 78.441406 C 262.054688 80.40625 260.46875 81.984375 258.511719 81.984375 Z M 258.511719 81.984375 " fill-opacity="1" fill-rule="evenodd"/><g clip-path="url(#d88901658f)"><g clip-path="url(#e70aaed7aa)"><g clip-path="url(#ca26baad1d)"><g clip-path="url(#b08dbb18ea)"><path stroke-linecap="round" transform="matrix(-0.336258, -0.236335, 0.235975, -0.335746, 256.58609, 346.754303)" fill="none" stroke-linejoin="miter" d="M 38.598636 223.450996 C 12.214287 290.539302 7.921978 366.032313 26.610259 435.668876 C 45.111702 505.320611 86.263738 568.778094 142.597946 613.776797 " stroke="#59cbe8" stroke-width="29.521" stroke-opacity="1" stroke-miterlimit="4"/></g></g></g></g><g clip-path="url(#47cb863594)"><g clip-path="url(#212b564673)"><g clip-path="url(#97593f634a)"><g clip-path="url(#435b28199d)"><path stroke-linecap="round" transform="matrix(-0.336258, -0.236335, 0.235975, -0.335746, 256.58609, 346.754303)" fill="none" stroke-linejoin="miter" d="M 532.149183 626.114657 C 569.838689 602.28381 602.629294 570.743821 627.908828 533.996595 C 640.551327 515.626876 651.367134 495.995021 659.992474 475.426899 C 668.628745 454.874353 675.154839 433.433735 679.436921 411.559926 C 688.003394 367.799047 687.674729 322.271716 678.333358 278.667401 C 669.028554 235.04898 650.62089 193.440303 624.72056 157.129067 " stroke="#9063cd" stroke-width="44.283001" stroke-opacity="1" stroke-miterlimit="4"/></g></g></g></g><g clip-path="url(#15d59101c9)"><g clip-path="url(#07af81d8c5)"><g clip-path="url(#7881af1505)"><g clip-path="url(#c6930552f9)"><path stroke-linecap="round" transform="matrix(-0.336258, -0.236335, 0.235975, -0.335746, 256.58609, 346.754303)" fill="none" stroke-linejoin="miter" d="M 282.715989 27.07681 C 263.978985 31.365565 245.611818 37.290419 227.902412 44.765046 C 210.199314 52.28177 193.206317 61.439404 177.098044 71.940509 C 144.900203 92.952822 116.344471 119.568867 93.221982 150.318423 C 70.166541 181.11386 52.536348 215.932091 41.39656 252.731905 L 39.423499 259.670444 L 38.443589 263.140871 C 38.126549 264.294803 37.748771 265.444951 37.508866 266.626028 L 34.263042 280.673329 C 33.345456 285.391321 32.560278 290.132453 31.68788 294.865175 C 31.495473 296.047721 31.229087 297.22417 31.089644 298.415974 L 30.642522 302.000016 L 29.731883 309.144738 C 27.528119 328.252526 26.958224 347.536555 27.976568 366.749714 " stroke="#fdda24" stroke-width="44.283001" stroke-opacity="1" stroke-miterlimit="4"/></g></g></g></g><g clip-path="url(#919f6eff59)"><g clip-path="url(#586b44902c)"><g clip-path="url(#4e118793da)"><g clip-path="url(#3365d21674)"><path stroke-linecap="round" transform="matrix(-0.336258, -0.236335, 0.235975, -0.335746, 256.58609, 346.754303)" fill="none" stroke-linejoin="miter" d="M 688.362653 267.582114 L 687.236125 262.732334 C 686.811858 261.134549 686.345557 259.543082 685.900274 257.948456 L 683.181074 248.379231 C 682.950657 247.587391 682.743567 246.779131 682.484357 245.995924 L 681.688021 243.636202 L 680.093039 238.930018 L 678.505834 234.218361 L 677.701722 231.864112 C 677.442512 231.080905 677.177837 230.289911 676.861043 229.523969 C 672.098116 217.158371 667.010697 204.893206 660.865335 193.140047 C 648.80957 169.538147 634.164222 147.212261 616.891333 127.084965 L 610.388862 119.57383 C 609.329074 118.295416 608.155804 117.120151 607.021412 115.91752 L 600.157479 108.718995 C 599.015312 107.521836 597.891007 106.30047 596.666461 105.184568 L 589.470702 98.32433 C 588.264018 97.18422 587.080662 96.02769 585.863891 94.906315 L 582.11334 91.647654 L 574.59122 85.13349 L 573.653794 84.327402 L 572.675177 83.561942 L 570.720255 82.017762 L 566.813566 78.950449 L 562.901411 75.875349 L 560.951955 74.338956 C 560.28063 73.845841 559.604684 73.379249 558.931049 72.899395 C 537.546194 57.225588 514.396141 43.969413 490.030516 33.500228 " stroke="#00c389" stroke-width="11.069" stroke-opacity="1" stroke-miterlimit="4"/></g></g></g></g><g clip-path="url(#468fa51ffe)"><g clip-path="url(#588afc4d55)"><g clip-path="url(#d8d4a96c61)"><g clip-path="url(#5e14bb32e9)"><path stroke-linecap="round" transform="matrix(-0.336258, -0.236335, 0.235975, -0.335746, 256.58609, 346.754303)" fill="none" stroke-linejoin="miter" d="M 376.445688 7.020996 C 353.222537 5.695151 329.874548 6.691014 306.8456 10.045169 C 283.824429 13.393852 261.143315 19.097667 239.280177 27.076166 C 195.567986 43.069786 155.276499 68.208642 121.56498 100.257258 " stroke="#ff7f41" stroke-width="11.069" stroke-opacity="1" stroke-miterlimit="4"/></g></g></g></g><g clip-path="url(#fce74e791d)"><g clip-path="url(#4ab713e653)"><g clip-path="url(#644b224038)"><g clip-path="url(#10890d4ef3)"><path stroke-linecap="round" transform="matrix(-0.336258, -0.236335, 0.235975, -0.335746, 256.58609, 346.754303)" fill="none" stroke-linejoin="miter" d="M 619.602875 565.299642 C 623.462201 560.651684 627.210758 555.895545 630.830685 551.055432 L 639.200213 539.276946 C 641.864787 535.260566 644.424901 531.178101 647.027892 527.123628 C 648.37342 525.117752 649.545129 523.013173 650.746474 520.93427 L 654.349666 514.663253 C 656.842732 510.534908 658.924267 506.184324 661.142209 501.91224 C 669.847933 484.719728 677.111831 466.796951 682.842504 448.394398 C 688.527989 429.977115 692.502652 411.042186 694.996871 391.950999 " stroke="#fdda24" stroke-width="25.830999" stroke-opacity="1" stroke-miterlimit="4"/></g></g></g></g><g clip-path="url(#ca652aacd1)"><g clip-path="url(#f04139467a)"><g clip-path="url(#d46f9d82e2)"><g clip-path="url(#475d648835)"><path stroke-linecap="round" transform="matrix(-0.336258, -0.236335, 0.235975, -0.335746, 256.58609, 346.754303)" fill="none" stroke-linejoin="miter" d="M 86.875731 536.410467 C 100.647791 556.035225 116.534854 574.171208 134.163204 590.418311 C 135.228016 591.472134 136.385293 592.425965 137.516932 593.409477 L 140.906384 596.352228 C 143.19299 598.302833 145.422855 600.305013 147.729633 602.218149 L 154.79833 607.771681 C 157.166471 609.60672 159.470939 611.533117 161.948563 613.209647 L 169.280571 618.426583 C 170.509297 619.283582 171.710074 620.183524 172.951196 621.008528 L 176.744546 623.43428 L 184.310229 628.288942 C 184.944764 628.679973 185.551352 629.113946 186.203749 629.480769 L 188.156321 630.60776 L 192.058311 632.840693 C 212.801604 644.835837 234.858038 654.580309 257.712463 661.820096 C 258.412138 662.072198 259.131986 662.286831 259.84868 662.480415 L 262.020621 663.092319 L 266.343487 664.319285 C 269.232121 665.124773 272.095962 665.994252 274.993839 666.746696 L 283.750079 668.762169 L 288.130932 669.773799 L 290.329134 670.274141 L 292.53258 670.666081 L 301.391553 672.248568 L 305.811687 673.034761 C 307.289197 673.28616 308.785192 673.431471 310.271945 673.629826 L 319.188463 674.764597 C 320.672061 674.941903 322.151882 675.180041 323.647034 675.291042 L 328.130178 675.637307 " stroke="#f5b6cd" stroke-width="25.830999" stroke-opacity="1" stroke-miterlimit="4"/></g></g></g></g><g clip-path="url(#049da0e28e)"><g clip-path="url(#1ff5d42bee)"><g clip-path="url(#d1c39bc95b)"><g clip-path="url(#37e8aa077b)"><path stroke-linecap="round" transform="matrix(-0.336258, -0.236335, 0.235975, -0.335746, 256.58609, 346.754303)" fill="none" stroke-linejoin="miter" d="M 376.385761 675.305146 C 395.574657 673.630206 414.63836 670.402918 433.307432 665.603522 L 447.216887 661.653045 C 448.37489 661.349834 449.51712 660.94138 450.65473 660.559448 L 454.083109 659.402706 L 460.926626 657.086906 L 464.34954 655.922375 L 467.71065 654.603562 L 474.435181 651.952674 L 477.798602 650.6206 C 478.918972 650.180995 480.044807 649.749178 481.131543 649.228538 L 487.71376 646.258983 C 505.268858 638.299613 522.144557 628.875511 538.140997 618.115725 C 545.955221 612.812993 553.542221 607.16992 560.88729 601.231764 " stroke="#ff7f41" stroke-width="25.830999" stroke-opacity="1" stroke-miterlimit="4"/></g></g></g></g></svg>